<svg xmlns="http://www.w3.org/2000/svg" version="1.0" viewBox="0 0 100 100"><path stroke="#000" stroke-width="2" stroke-linecap="round" stroke-linejoin="round" stroke-miterlimit="10" d="M53.5 29.594a4.91 4.91 0 0 0 1.45-3.501 4.957 4.957 0 0 0-4.952-4.951 4.959 4.959 0 0 0-4.951 4.948h0c0 1.322.516 2.568 1.452 3.503L63.402 46.5l-3.5 3.498-16.904-16.903a9.88 9.88 0 0 1-2.901-7.005v.003c0-5.469 4.434-9.902 9.902-9.902 5.47 0 9.903 4.434 9.903 9.902a9.872 9.872 0 0 1-2.899 7.003L53.5 29.594zm16.904 23.908a4.916 4.916 0 0 0 3.502 1.451 4.957 4.957 0 0 0 4.949-4.951 4.956 4.956 0 0 0-4.945-4.953v.002a4.936 4.936 0 0 0-3.504 1.449L53.5 63.404l-3.501-3.5L66.906 43a9.88 9.88 0 0 1 7.004-2.901l-.004-.002c5.469 0 9.902 4.436 9.902 9.905s-4.435 9.902-9.902 9.902a9.869 9.869 0 0 1-7.002-2.9l3.5-3.502z"/><path stroke="#000" stroke-width="2" stroke-linecap="round" stroke-linejoin="round" stroke-miterlimit="10" d="M29.594 46.5a4.918 4.918 0 0 0-3.502-1.451 4.956 4.956 0 0 0-4.951 4.949 4.957 4.957 0 0 0 4.948 4.955v-.002a4.929 4.929 0 0 0 3.503-1.451L46.5 36.597l3.499 3.5-16.905 16.904a9.887 9.887 0 0 1-7.005 2.901l.003.002c-5.471 0-9.902-4.436-9.902-9.906 0-5.468 4.432-9.901 9.902-9.901a9.88 9.88 0 0 1 7.004 2.899L29.594 46.5z"/><path fill="none" stroke="#000" stroke-width="2" stroke-linecap="round" stroke-linejoin="round" stroke-miterlimit="10" d="M73.906 33.906v.004a15.957 15.957 0 0 0-10.458 3.879l-1.226-1.226a15.969 15.969 0 0 0 3.868-10.471C66.092 17.222 58.875 10 49.999 10c-8.873 0-16.092 7.222-16.092 16.093h0a15.976 15.976 0 0 0 3.88 10.459l-1.223 1.225a15.988 15.988 0 0 0-10.472-3.871C17.219 33.906 10 41.128 10 49.998c0 8.877 7.219 16.096 16.092 16.096v-.002a15.96 15.96 0 0 0 10.459-3.881l1.223 1.225a15.99 15.99 0 0 0-3.87 10.471C33.905 82.779 41.124 90 49.999 90s16.093-7.221 16.093-16.094h-.002c0-3.881-1.377-7.541-3.88-10.457l1.226-1.227a15.971 15.971 0 0 0 10.472 3.871C82.781 66.094 90 58.875 90 50.002c0-8.874-7.219-16.096-16.094-16.096z"/><path stroke="#000" stroke-width="2" stroke-linecap="round" stroke-linejoin="round" stroke-miterlimit="10" d="M46.497 70.404a4.924 4.924 0 0 0-1.449 3.502 4.957 4.957 0 0 0 4.951 4.951 4.957 4.957 0 0 0 4.952-4.947h-.002a4.936 4.936 0 0 0-1.45-3.504L36.594 53.5l3.5-3.502 16.904 16.908A9.872 9.872 0 0 1 59.9 73.91l.002-.004c0 5.469-4.437 9.902-9.904 9.902-5.471 0-9.904-4.435-9.904-9.902a9.867 9.867 0 0 1 2.901-7.002l3.502 3.5z"/><path fill="none" stroke="#000" stroke-width="2" stroke-linecap="round" stroke-linejoin="round" stroke-miterlimit="10" d="M49.991 59.904l-9.903-9.906 9.904-9.9 9.903 9.905z"/></svg>