<svg xmlns="http://www.w3.org/2000/svg" viewBox="0 0 80 80"><path d="M69 69H12V12h57v57zm-55-2h53V14H14v53z"/><path d="M22.5 23.9L12.3 13.7l1.4-1.4 8.8 8.8 8.3-8.4 1.5 1.5z"/><path d="M40.6 23.9L30.4 13.7l1.4-1.4 8.8 8.8 8.3-8.4 1.5 1.5z"/><path d="M58.7 23.9L48.5 13.7l1.4-1.4 8.8 8.8 8.3-8.4 1.4 1.5zm-45 44.3l-1.4-1.4 10.2-10.2 9.8 9.7-1.5 1.5-8.3-8.4z"/><path d="M31.8 68.2l-1.4-1.4 10.2-10.2 9.8 9.7-1.5 1.5-8.3-8.4z"/><path d="M49.9 68.2l-1.4-1.4 10.2-10.2 9.7 9.7-1.4 1.5-8.3-8.4zM21.31 22.23l1.327 1.496-8.898 7.9-1.328-1.496z"/><path d="M13.8 49.7l-1.4-1.4 8.3-8.3-8.8-8.8 1.4-1.4L23.5 40z"/><path d="M13.376 47.883l9.475 9.475-1.414 1.414-9.475-9.475zM59.37 21.744l8.967 8.42-1.369 1.458-8.966-8.42z"/><path d="M67 49.7L57.2 40l10.2-10.2 1.4 1.4L60 40l8.4 8.3z"/><path d="M67.436 47.883l1.415 1.414-9.476 9.475-1.414-1.414z"/></svg>