<svg xmlns="http://www.w3.org/2000/svg" viewBox="0 0 847 847" fill-rule="evenodd" clip-rule="evenodd" shape-rendering="geometricPrecision" text-rendering="geometricPrecision" image-rendering="optimizeQuality"><path d="M6 681L358 65c4-6 7-8 14-8h100c6 0 10 2 13 8l356 616c2 4 2 9 0 13l-50 87c-3 5-7 9-13 9H69c-5 0-10-3-12-7L6 694c-3-3-3-10 0-13zm134-7l35-61h391l35 61H140zm485 27c10 0 17-11 12-20L437 336l36-61 282 488H76l-35-62h584zM379 84L41 674h68L449 84h-70zm94 14L191 586h71l199-345c5-10 19-9 24 0l293 508 35-61L473 98zM293 586h257L422 363 293 586z"/></svg>