<svg xmlns="http://www.w3.org/2000/svg" viewBox="0 0 100 100"><path d="M53.454 12.333H12.333v75h75v-75H53.454zm30.879 3v30.879L53.454 15.333h30.879zm-18 30.879L53.454 33.333h12.879v12.879zm-.621 3.621L49.833 65.712 33.954 49.833l15.879-15.879 15.879 15.879zm-32.379-3.621V33.333h12.879L33.333 46.212zm0 7.242l12.879 12.879H33.333V53.454zm33 0v12.879H53.454l12.879-12.879zm-16.5-37.5l14.379 14.379H35.454l14.379-14.379zm-34.5-.621h30.879L15.333 46.212V15.333zm15 20.121v28.758L15.954 49.833l14.379-14.379zm-15 48.879V53.454l30.879 30.879H15.333zm34.5-.621L35.454 69.333h28.758L49.833 83.712zm34.5.621H53.454l30.879-30.879v30.879zm-15-20.121V35.454l14.379 14.379-14.379 14.379z"/></svg>