<svg xmlns="http://www.w3.org/2000/svg" viewBox="0 0 100 100"><path d="M89.512 61.885a19.685 19.685 0 0 0-12.381-4.354h-4.543V42.47h4.543c4.688 0 8.992-1.632 12.381-4.356a20.035 20.035 0 0 0 3.033-3.032c2.727-3.389 4.357-7.693 4.357-12.381s-1.631-8.992-4.357-12.381a20.127 20.127 0 0 0-3.033-3.032A19.684 19.684 0 0 0 77.131 2.93c-4.684 0-8.99 1.633-12.377 4.356a19.763 19.763 0 0 0-3.033 3.032 19.677 19.677 0 0 0-4.356 12.381v5.528H42.637V22.7c0-4.688-1.63-8.992-4.357-12.381a19.846 19.846 0 0 0-3.032-3.032 19.689 19.689 0 0 0-12.38-4.357c-4.688 0-8.99 1.633-12.38 4.356a20.041 20.041 0 0 0-3.034 3.032c-2.725 3.389-4.356 7.694-4.356 12.381S4.73 31.691 7.454 35.08a19.86 19.86 0 0 0 3.034 3.032 19.68 19.68 0 0 0 12.38 4.356h4.545v15.061h-4.545c-4.688 0-8.99 1.631-12.38 4.354a19.879 19.879 0 0 0-3.034 3.035c-2.725 3.388-4.356 7.69-4.356 12.379s1.632 8.99 4.356 12.381a19.808 19.808 0 0 0 3.034 3.031 19.682 19.682 0 0 0 12.38 4.358c4.686 0 8.991-1.635 12.379-4.358a19.75 19.75 0 0 0 3.032-3.031 19.672 19.672 0 0 0 4.357-12.381v-5.525h14.728v5.527A19.69 19.69 0 0 0 61.72 89.68a19.668 19.668 0 0 0 3.033 3.031A19.682 19.682 0 0 0 77.13 97.07c4.688 0 8.992-1.635 12.381-4.359a19.982 19.982 0 0 0 3.033-3.031c2.728-3.391 4.356-7.693 4.356-12.381s-1.631-8.992-4.356-12.379a20.002 20.002 0 0 0-3.032-3.035zM61.721 42.47V22.698c0-8.499 6.912-15.413 15.41-15.413 8.5 0 15.414 6.914 15.414 15.413s-6.914 15.413-15.414 15.413h-2.215v-.056h-2.279V38h-.049v-5.396h4.898a9.244 9.244 0 0 0 5.812-2.043 9.321 9.321 0 0 0 1.425-1.425 9.242 9.242 0 0 0 2.047-5.812c0-2.2-.767-4.222-2.047-5.812a9.188 9.188 0 0 0-1.425-1.425 9.24 9.24 0 0 0-5.812-2.045 9.26 9.26 0 0 0-7.234 3.47 9.23 9.23 0 0 0-2.047 5.812v34.204h-6.484V42.47zm10.867-14.244v-4.901c0-2.701 2.197-4.9 4.898-4.9a4.905 4.905 0 0 1 4.899 4.9 4.905 4.905 0 0 1-4.899 4.901h-4.898zm-29.951 4.379h14.727v5.396H42.637v-5.396zm0 9.865h14.727v15.06H42.637V42.47zm-17.552-4.413v.055h-2.217c-8.5 0-15.414-6.914-15.414-15.413S14.368 7.286 22.868 7.286c8.499 0 15.411 6.914 15.411 15.413v34.83h-6.484V23.327c0-2.2-.767-4.222-2.046-5.812a9.263 9.263 0 0 0-7.235-3.47 9.244 9.244 0 0 0-5.812 2.045 9.188 9.188 0 0 0-1.425 1.425 9.246 9.246 0 0 0-2.045 5.812c0 2.201.767 4.221 2.045 5.812a9.321 9.321 0 0 0 1.425 1.425 9.25 9.25 0 0 0 5.812 2.043h4.899v5.451h-2.328zm2.328-14.732v4.902h-4.899a4.907 4.907 0 0 1-4.901-4.901c0-2.701 2.199-4.9 4.901-4.9a4.904 4.904 0 0 1 4.899 4.899zm49.718 69.386c-8.498 0-15.41-6.914-15.41-15.412v-5.527h6.484v4.902c0 2.201.766 4.226 2.047 5.814a9.261 9.261 0 0 0 7.234 3.467 9.238 9.238 0 0 0 5.812-2.043 9.405 9.405 0 0 0 1.425-1.424 9.244 9.244 0 0 0 2.047-5.814 9.24 9.24 0 0 0-2.047-5.811 9.25 9.25 0 0 0-7.237-3.47H22.515a9.254 9.254 0 0 0-7.237 3.47 9.243 9.243 0 0 0-2.045 5.811c0 2.201.767 4.226 2.045 5.814.421.522.899 1 1.425 1.424a9.244 9.244 0 0 0 5.812 2.043 9.253 9.253 0 0 0 7.235-3.467 9.249 9.249 0 0 0 2.046-5.814v-4.902h6.484v5.527c0 8.498-6.912 15.412-15.411 15.412-8.5 0-15.414-6.914-15.414-15.412 0-8.5 6.914-15.414 15.414-15.414h54.267c8.496 0 15.41 6.914 15.41 15.414-.001 8.498-6.915 15.412-15.415 15.412zm-4.543-16.039v-4.901h4.898c2.703 0 4.899 2.198 4.899 4.899s-2.196 4.902-4.899 4.902a4.904 4.904 0 0 1-4.898-4.9zm-45.175-4.901v4.901a4.908 4.908 0 0 1-4.899 4.902c-2.702 0-4.901-2.201-4.901-4.902s2.199-4.9 4.901-4.9h4.899z"/></svg>