<svg xmlns="http://www.w3.org/2000/svg" viewBox="0 0 100 100"><path d="M93 46.9L74.7 28.6c-.8-.8-1.9-1.3-3.1-1.3-1.2 0-2.3.5-3.1 1.3l-7.7 7.7-7.7-7.7c-.8-.8-1.9-1.3-3.1-1.3-1.2 0-2.3.5-3.1 1.3l-7.7 7.7-7.7-7.7c-.8-.8-1.9-1.3-3.1-1.3s-2.3.5-3.1 1.3L7 46.9c-1.7 1.7-1.7 4.5 0 6.2l18.3 18.3c.8.8 1.9 1.3 3.1 1.3s2.3-.5 3.1-1.3l7.7-7.7 7.7 7.7c.8.8 1.9 1.3 3.1 1.3 1.2 0 2.3-.5 3.1-1.3l7.7-7.7 7.7 7.7c.8.8 1.9 1.3 3.1 1.3 1.2 0 2.3-.5 3.1-1.3L93 53.1c.8-.8 1.3-1.9 1.3-3.1s-.5-2.3-1.3-3.1zM60.8 60.8l-9.1-9.1c-.4-.4-.7-1-.7-1.7s.2-1.2.7-1.7l9.1-9.1 9.1 9.1c.9.9.9 2.4 0 3.3l-9.1 9.2zM48.3 48.3c.4.4.7 1 .7 1.7s-.2 1.2-.7 1.7l-9.1 9.1-9.2-9.1c-.9-.9-.9-2.4 0-3.3l9.1-9.1 9.2 9z"/></svg>