<svg xmlns="http://www.w3.org/2000/svg" viewBox="0 0 160 160"><g fill-rule="evenodd" clip-rule="evenodd"><path d="M80.077 104.504c-14.665 0-26.987-10.026-30.488-23.597-5.385.516-9.583 1.03-11.809 1.319C45.144 108.669 73.237 132 80.623 132c8.628 0 35.025-23.181 41.885-49.756a364.667 364.667 0 0 0-11.945-1.332c-3.502 13.568-15.823 23.592-30.486 23.592z"/><path d="M59.813 87.979a25.095 25.095 0 0 0 12.126 8.871 25.122 25.122 0 0 0 8.065 1.35c2.754.009 5.489-.41 8.101-1.287a25.03 25.03 0 0 0 4.617-2.058c2.984-1.731 5.526-4.039 7.585-6.811 3.099-4.17 4.798-9.14 4.933-14.351l.002-.207c.005-.131.007-.264.008-.396a25.04 25.04 0 0 0-4.383-14.264 25.335 25.335 0 0 0-12.901-9.717 25.161 25.161 0 0 0-7.828-1.267c-2.75-.008-5.47.433-8.081 1.31-5.102 1.712-9.66 5.148-12.724 9.589a25.039 25.039 0 0 0-4.442 14.213c0 .116.002.232.006.347l.005.179a24.991 24.991 0 0 0 4.911 14.499zm41.319-15.671c.555 1.079 1.248 2.564 1.3 3.784-.001-.021.575-.404.635-.458.022-.021.043-.038.065-.061a7.692 7.692 0 0 0 .278-.268c.062-.062.125-.13.191-.199a23.381 23.381 0 0 1-3.755 10.831c-.043-.3-.076-.607-.18-.889-.18-.499-.298-.425-.671-.123-.857.698-1.936 1.053-2.956 1.437a17.62 17.62 0 0 1-5.271 1.084l-4.991-6.441 3.408-10.231s8.366-2.68 8.367-2.678a12.206 12.206 0 0 1 3.58 4.212zM80.39 54.729a13.41 13.41 0 0 1 4.049-1.948c1.01-.29 2.006-.26 3.03-.434.6-.103 1.237-.097 1.824-.233a2.936 2.936 0 0 0-.147-.356l-.024-.056a3.188 3.188 0 0 0-.072-.152c-.011-.021-.017-.038-.027-.059a10.693 10.693 0 0 0-.13-.256c-.004-.006.002-.018.004-.028a23.58 23.58 0 0 1 9.819 7.38 10.566 10.566 0 0 0-.247-.041l-.039-.006a6.87 6.87 0 0 0-.312-.036c-.168-.015-.622-.113-.73.067-.144.234.165.727.204.965.044.264.057.535.106.803.118.627.192 1.262.229 1.898a17.201 17.201 0 0 1-.215 3.854c-.032.187-.169 1.468-.32 1.516l-8.364 2.662-8.662-6.333.024-9.207zm4.847 26.469l5.052 6.52a13.538 13.538 0 0 1-3.523 5.239c-.479.438-.988.843-1.529 1.199-.146.097-.361.179-.486.301-.639.627.783 1.149 1.129 1.312.025.012.053.022.078.034l.074.029c-1.873.48-3.834.736-5.855.736-2.172 0-4.219-.275-6.134-.774l.07-.029a.354.354 0 0 1 .034-.016c.408-.176.856-.331 1.2-.622.354-.298.419-.431.041-.655-.391-.231-.767-.48-1.127-.756a13.49 13.49 0 0 1-3.687-4.36c-.101-.189-.806-1.368-.695-1.528l4.655-6.66 10.703.03zm-13.99-29.91l-.082.197-.019.051c-.021.057-.041.108-.056.152a1.726 1.726 0 0 0-.051.15l-.166.466c.267.085.596-.029.88-.009.98.065 1.903.095 2.879.315a17.536 17.536 0 0 1 5.211 2.125l-.026 9.202-8.577 6.197-8.394-2.503c-.18-.053-.334-1.585-.368-1.798-.225-1.474-.253-3.272-.358-4.771-.069-.987.472-2.555-.334-2.507l-.134.007a23.606 23.606 0 0 1 9.595-7.274zM56.77 75.198c.089.09.171.169.248.24.246.226.474.526.815.614.212-.553.241-1.197.441-1.769.219-.627.489-1.235.8-1.82a13.49 13.49 0 0 1 2.424-3.253c.148-.146 1.017-1.106 1.199-1.053l8.289 2.471 3.231 10.038-4.709 6.735c-.096.136-1.408-.123-1.604-.149a17.655 17.655 0 0 1-1.517-.275 16.758 16.758 0 0 1-2.459-.758 15.016 15.016 0 0 1-1.752-.821c-.207-.114-.407-.237-.609-.359-.298-.181-.515-.498-.827-.64-.285-.131-.254-.062-.344.238-.086.288-.109.59-.123.892-1.959-3.166-3.167-6.741-3.513-10.344l.01.013z"/><path d="M79.898 32.092L36 44.686v22.039s5.405-.777 13.536-1.56c3.419-13.688 15.794-23.829 30.542-23.829 14.753 0 27.132 10.149 30.546 23.846 8.126.776 13.531 1.542 13.531 1.542V44.686L79.898 32.092z"/></g></svg>